<?xml version="1.0" encoding="UTF-8"?>
<svg width="120px" height="22px" viewBox="0 0 120 22" version="1.1" xmlns="http://www.w3.org/2000/svg" xmlns:xlink="http://www.w3.org/1999/xlink">
    <title>Schibsted_Logotype</title>
    <g id="Schibsted_Logotype" stroke="none" stroke-width="1" fill="none" fill-rule="evenodd">
        <g id="Group" fill="#787776">
            <path d="M13.2128576,11.7965034 C13.129983,11.6272953 13.0146603,11.3825638 12.8348064,11.1532617 C12.7177297,11.0040604 12.5530037,10.9018121 12.3542948,10.9018121 C12.0430403,10.9018121 11.830519,11.1300067 11.830519,11.4478255 C11.830519,11.5569396 11.8669136,11.6556443 11.9133204,11.747557 C11.9387528,11.7979799 11.9866944,11.896906 12.0121268,11.9483624 C12.0285701,11.9816577 12.0279124,12.014953 11.9996298,12.0303826 C11.9663777,12.0493557 11.9349526,12.0326711 11.9174861,12.0035101 C11.8904459,11.9581812 11.8065482,11.8229329 11.8065482,11.8229329 C11.7053302,11.663396 11.5338807,11.5467517 11.3323216,11.5467517 C11.0135397,11.5467517 10.7657199,11.8134832 10.7657199,12.1327785 C10.7657199,12.2243221 10.7880098,12.3103289 10.8251353,12.3874765 C10.8400439,12.4184832 10.868765,12.4809396 10.8837467,12.5117248 C10.900117,12.5453893 10.9004824,12.5792013 10.8717614,12.5969195 C10.8420902,12.6152282 10.8095689,12.5977315 10.7919562,12.5702685 C10.770251,12.5365302 10.7261828,12.4695705 10.7030159,12.4370134 C10.6075713,12.3022819 10.4546846,12.2209262 10.2833082,12.2209262 C9.99953236,12.2209262 9.76486732,12.4364228 9.76486732,12.7653154 C9.76486732,12.8683758 9.8086432,12.9966107 9.85505002,13.1004832 C10.0852571,13.6162282 10.1978028,14.1189799 10.1978028,14.8924497 C10.1978028,16.7163826 8.78571994,18.1948121 7.07897207,18.1948121 C4.81819253,18.1948121 3.97724247,16.4376913 3.81602444,15.9150805 C3.7967309,15.8524027 3.73059204,15.8176309 3.66847268,15.8368993 L0.306207148,16.8822685 C0.243649292,16.9016846 0.207473896,16.9686443 0.226913603,17.0316913 C0.969276575,19.4494765 3.33719375,21.984349 7.0411158,21.984349 C10.1103241,21.984349 12.6609453,19.9071208 13.5964629,17.1035973 C14.1805311,15.3534161 14.0010427,13.4068591 13.2128576,11.7965034" id="Fill-1"></path>
            <path d="M6.97051896,11.3217611 C6.7895689,11.3217611 6.6441365,11.1735933 6.6441365,10.9923517 C6.6441365,10.8095597 6.79081129,10.6625732 6.97029972,10.6625732 C7.15124978,10.6625732 7.29668218,10.8108148 7.29668218,10.9920564 C7.29668218,11.1748483 7.15000739,11.3217611 6.97051896,11.3217611" id="Fill-3"></path>
            <path d="M6.97051896,8.49678389 C6.7895689,8.49678389 6.6441365,8.34854228 6.6441365,8.16730067 C6.6441365,7.98450872 6.79081129,7.83759597 6.97029972,7.83759597 C7.15124978,7.83759597 7.29668218,7.98576376 7.29668218,8.16707919 C7.29668218,8.34979732 7.15000739,8.49678389 6.97051896,8.49678389" id="Fill-5"></path>
            <path d="M6.97051896,9.90927248 C6.7895689,9.90927248 6.6441365,9.7611047 6.6441365,9.57978926 C6.6441365,9.39707114 6.79081129,9.25008456 6.97029972,9.25008456 C7.15124978,9.25008456 7.29668218,9.39832617 7.29668218,9.57956779 C7.29668218,9.76235973 7.15000739,9.90927248 6.97051896,9.90927248" id="Fill-7"></path>
            <path d="M9.5416834,11.5025745 C9.47247511,11.4298564 9.378346,11.3518228 9.29627536,11.2943866 C9.10443614,11.1602456 8.92794405,11.0492859 8.7163728,10.9508765 C8.58095258,10.8879034 8.51722542,10.855051 8.35038011,10.8074336 C8.22621446,10.7719973 8.10796841,10.7562725 7.99586123,10.8032993 C7.82068461,10.8766819 7.72385148,11.0645678 7.78027049,11.2687691 C7.82346172,11.4249101 7.94850435,11.487145 8.08231677,11.5520376 C8.29688437,11.6561315 8.40336427,11.7115745 8.58570288,11.8251919 C8.72784661,11.9137087 8.84894284,11.9952859 8.99335209,12.0994537 C9.16465538,12.2230376 9.38148851,12.2432658 9.5345214,12.1064671 C9.70750556,11.9517289 9.71028267,11.6798295 9.5416834,11.5025745" id="Fill-9"></path>
            <path d="M10.7088186,10.6779879 C10.4895738,10.4517128 10.2415348,10.2565919 10.0020464,10.1324174 C9.92231433,10.0910752 9.86297207,10.0613235 9.75824612,10.0365919 C9.60367852,9.99990067 9.44216817,10.0477396 9.34138863,10.171102 C9.23198547,10.3050953 9.22080398,10.4883302 9.30777109,10.638196 C9.38056038,10.7637732 9.47637036,10.8262295 9.5890622,10.9089141 C9.75809996,11.0329409 9.87539594,11.1270685 10.0333253,11.2616523 C10.136005,11.3491356 10.2231913,11.4438537 10.364385,11.4632698 C10.5473082,11.4885919 10.7303777,11.3915852 10.8138369,11.2252564 C10.9043119,11.0449007 10.8486968,10.8223906 10.7088186,10.6779879" id="Fill-11"></path>
            <path d="M8.66477718,9.47622685 C8.5661901,9.4335557 8.4847041,9.39959597 8.34372968,9.36312617 C8.23944223,9.33617987 8.11491117,9.32075034 8.00704271,9.34629396 C7.76251165,9.40424698 7.64660422,9.70146846 7.78662859,9.91253557 C7.84333991,9.99809933 7.91773699,10.0353074 8.02085514,10.0722201 C8.10380276,10.101898 8.16519131,10.1242671 8.26428997,10.1609584 C8.33751774,10.1881262 8.42207316,10.2219383 8.489089,10.2349315 C8.60996598,10.2582604 8.73705489,10.2195758 8.82548364,10.1333477 C9.03332773,9.93054899 8.9635348,9.60542148 8.66477718,9.47622685" id="Fill-13"></path>
            <path d="M8.32606586,7.97347919 C8.27213163,7.95834497 8.20365416,7.94335839 8.13707682,7.93782148 C8.05266756,7.93088188 7.95736915,7.94247248 7.8808527,7.99466711 C7.73096232,8.09684161 7.68031677,8.30355302 7.76677231,8.46427114 C7.80872116,8.54237852 7.87931799,8.60328456 7.96233869,8.63251946 C8.03812432,8.65931812 8.12589533,8.68766711 8.20591969,8.6968953 C8.38372725,8.71727114 8.55261884,8.59966711 8.59741787,8.42492215 C8.64937889,8.22234497 8.52579789,8.0296604 8.32606586,7.97347919" id="Fill-15"></path>
            <path d="M10.0708162,8.56534564 C9.97588315,8.50562081 9.8918393,8.46058725 9.78689411,8.42057383 C9.67193675,8.37672148 9.56077962,8.3440906 9.45049947,8.33663423 C9.19069436,8.31906376 8.97780764,8.56106376 9.02421446,8.81960067 C9.04679667,8.94547315 9.12923273,9.05562081 9.24236306,9.11283557 C9.33166878,9.1580906 9.39985392,9.19256711 9.49639472,9.2420302 C9.59052383,9.29023826 9.68867243,9.34952013 9.79113285,9.37727852 C9.91595623,9.4110906 10.0516688,9.38311074 10.1536907,9.30323154 C10.3965409,9.1129094 10.3457492,8.73824497 10.0708162,8.56534564" id="Fill-17"></path>
            <path d="M11.9232595,9.93994698 C11.825184,9.81828255 11.7276201,9.71773221 11.6228941,9.62500738 C11.5112254,9.52615503 11.4350013,9.46347718 11.302212,9.38042349 C11.1876201,9.30873893 11.0547577,9.27049732 10.9172912,9.29670537 C10.7769745,9.3234302 10.6571937,9.42442349 10.6055981,9.55885973 C10.5480829,9.70857785 10.5818466,9.88265839 10.690592,9.99967181 C10.7706895,10.0857523 10.843698,10.1427456 10.9316883,10.2212221 C11.0421877,10.3197792 11.1478637,10.4167121 11.251128,10.522947 C11.3441609,10.6186987 11.4455251,10.6923027 11.5847455,10.6975443 C11.7509331,10.7036718 11.9092279,10.6091013 11.9839903,10.4590879 C12.0664995,10.2934973 12.0504946,10.0979336 11.9232595,9.93994698" id="Fill-19"></path>
            <path d="M0.727895333,10.1878456 C0.810769876,10.3570537 0.926092653,10.6017852 1.10594649,10.8310872 C1.22302323,10.9803624 1.38774917,11.0825369 1.58645806,11.0825369 C1.89771263,11.0825369 2.11023394,10.8544161 2.11023394,10.5365973 C2.11023394,10.4274832 2.0738393,10.3287785 2.02743248,10.2367919 C2.00200008,10.186443 1.95405855,10.087443 1.92862615,10.0360604 C1.91218279,10.0027651 1.91284052,9.96939597 1.9411231,9.95396644 C1.97437524,9.93499329 2.00580033,9.95167785 2.02326683,9.98091275 C2.05030703,10.0261678 2.13420471,10.1614161 2.13420471,10.1614161 C2.23542274,10.320953 2.40687219,10.4375973 2.60843126,10.4375973 C2.92721324,10.4375973 3.17503297,10.1708658 3.17503297,9.8516443 C3.17503297,9.76002685 3.15274308,9.67402013 3.11561762,9.59687248 C3.10070897,9.5659396 3.0719879,9.50348322 3.05700617,9.47262416 C3.04063589,9.43903356 3.04027049,9.40514765 3.06899156,9.38750336 C3.09866269,9.36912081 3.13118401,9.38669128 3.14879667,9.41408054 C3.17050191,9.44781879 3.21457012,9.51477852 3.23773699,9.5474094 C3.33318157,9.68214094 3.48606829,9.76342282 3.65744466,9.76342282 C3.94122055,9.76342282 4.17588559,9.54792617 4.17588559,9.21903356 C4.17588559,9.11604698 4.13210971,8.98781208 4.08570288,8.88386577 C3.85542274,8.36812081 3.74295014,7.86544295 3.74295014,7.09189933 C3.74295014,5.26804027 5.15503297,3.78961074 6.86178084,3.78961074 C9.12256038,3.78961074 9.96351044,5.54665772 10.1247285,6.06926846 C10.144022,6.13194631 10.2101609,6.16671812 10.2722802,6.14744966 L13.6345458,5.10215436 C13.6971036,5.08273826 13.733279,5.01577852 13.7138393,4.95273154 C12.9714763,2.53487248 10.6035592,0 6.89963711,0 C3.83042883,0 1.27980764,2.07722819 0.344289974,4.88075168 C-0.239778236,6.63100671 -0.0602898071,8.57748993 0.727895333,10.1878456" id="Fill-21"></path>
            <path d="M6.97023394,13.4876463 C7.15118401,13.4876463 7.2966164,13.6358141 7.2966164,13.8171295 C7.2966164,13.9998477 7.14986854,14.1468342 6.97045319,14.1468342 C6.78950313,14.1468342 6.64407073,13.9986664 6.64407073,13.817351 C6.64407073,13.6345591 6.79074552,13.4876463 6.97023394,13.4876463" id="Fill-23"></path>
            <path d="M6.97023394,12.0750839 C7.15118401,12.0750839 7.2966164,12.2233255 7.2966164,12.4045671 C7.2966164,12.5873591 7.14986854,12.7343456 6.97045319,12.7343456 C6.78950313,12.7343456 6.64407073,12.586104 6.64407073,12.4048624 C6.64407073,12.2219966 6.79074552,12.0750839 6.97023394,12.0750839" id="Fill-25"></path>
            <path d="M4.39906951,10.4818114 C4.46827779,10.5545295 4.5624069,10.6325631 4.64447755,10.6899993 C4.83631677,10.8241403 5.01280885,10.9351 5.22438011,11.0334356 C5.35980033,11.0964826 5.42352749,11.1293349 5.5903728,11.1769523 C5.71453845,11.2123886 5.83278449,11.2281134 5.94489168,11.1810866 C6.12006829,11.107704 6.21690142,10.9198181 6.16048242,10.7156168 C6.11729119,10.5594758 5.99224856,10.4972409 5.85843614,10.4323483 C5.64386854,10.3281805 5.53738863,10.2728114 5.35505002,10.159194 C5.2129063,10.0706034 5.09181007,9.9891 4.94740081,9.88493221 C4.77609753,9.76134832 4.5592644,9.74112013 4.40623151,9.87791879 C4.23324734,10.032657 4.23047024,10.3044826 4.39906951,10.4818114" id="Fill-27"></path>
            <path d="M3.23194162,11.3064054 C3.45118644,11.5326805 3.69922542,11.7277275 3.93871385,11.8519758 C4.01844588,11.8932443 4.07778815,11.9230698 4.18251409,11.9478013 C4.33708169,11.9844926 4.49859204,11.9366537 4.59937158,11.8132174 C4.70877475,11.679298 4.71995623,11.4960631 4.63298912,11.3461235 C4.56019984,11.2206201 4.46438985,11.1581638 4.35169801,11.0754792 C4.18266025,10.9514523 4.06536427,10.8573987 3.90743492,10.7227409 C3.80475526,10.6352577 3.7175689,10.5405396 3.57637524,10.5210497 C3.39345197,10.4958013 3.21038254,10.5928081 3.12692335,10.7591369 C3.03644832,10.9394926 3.09206342,11.1620027 3.23194162,11.3064054" id="Fill-29"></path>
            <path d="M5.27597572,12.5081591 C5.37456281,12.5507564 5.4560488,12.5847899 5.59702323,12.6211859 C5.70131068,12.6481322 5.82584174,12.6636356 5.93371019,12.6380919 C6.17816817,12.5801389 6.29414868,12.2829174 6.15412432,12.0719242 C6.09733991,11.9862866 6.02301592,11.9490785 5.91989777,11.9121658 C5.83695014,11.8824141 5.77556159,11.8601188 5.67646293,11.8234275 C5.60323516,11.7962597 5.51867974,11.7623738 5.45166391,11.7495282 C5.33078693,11.7260517 5.20369801,11.7648101 5.11526927,11.8510383 C4.90742517,12.0538369 4.97721811,12.3788906 5.27597572,12.5081591" id="Fill-31"></path>
            <path d="M5.61465782,14.0109141 C5.66859204,14.0260483 5.73706951,14.0410349 5.80371994,14.046498 C5.88805611,14.0535114 5.98342761,14.0419946 6.05994405,13.9898 C6.20976135,13.8875517 6.2604069,13.6808403 6.17402444,13.5201221 C6.1320756,13.4420148 6.06147877,13.3811826 5.97845806,13.3518 C5.90259935,13.3250752 5.81490142,13.2967262 5.73487706,13.287498 C5.55699643,13.2671221 5.38810483,13.3847262 5.34330581,13.5594711 C5.29141787,13.7621221 5.41492578,13.9547329 5.61465782,14.0109141" id="Fill-33"></path>
            <path d="M3.86990751,13.4190107 C3.96484052,13.4787356 4.04888437,13.5237691 4.15390264,13.5638564 C4.26878693,13.6076349 4.37994405,13.6402658 4.4902242,13.647796 C4.7501024,13.6653664 4.96298912,13.4233664 4.91650922,13.1647557 C4.893927,13.038957 4.81156403,12.9287356 4.6984337,12.8715208 C4.60912798,12.8263396 4.54086975,12.7918631 4.44432895,12.7424 C4.35019984,12.6941919 4.25205124,12.6349101 4.14966391,12.6071517 C4.02484052,12.5733396 3.88912798,12.6012456 3.78710605,12.6811987 C3.54418279,12.8715208 3.5949745,13.2461852 3.86990751,13.4190107" id="Fill-35"></path>
            <path d="M2.01749338,12.0444389 C2.1155689,12.1661034 2.21313285,12.2666537 2.31785879,12.3593785 C2.42952749,12.4582309 2.50575161,12.5208349 2.63854089,12.6039624 C2.75313285,12.6757208 2.88592213,12.7138148 3.02346172,12.6876805 C3.1637784,12.6609557 3.28355916,12.5598886 3.33515477,12.4255262 C3.39267,12.2758081 3.3589063,12.1017275 3.25016086,11.9847141 C3.17006342,11.8985597 3.09705489,11.8416403 3.00906464,11.7630899 C2.89856525,11.6646067 2.79288924,11.5676738 2.68962493,11.4615128 C2.59659204,11.3656872 2.49522785,11.2920832 2.35600739,11.2868416 C2.18981982,11.2806403 2.03152505,11.3752846 1.95676257,11.5253718 C1.87425343,11.6908886 1.89018522,11.8864523 2.01749338,12.0444389" id="Fill-37"></path>
            <path d="M38.6127138,7.54685638 C37.3228235,7.54685638 35.8410208,7.99032617 34.9628722,9.04374228 L34.9628722,1.59401074 C34.9628722,1.52867517 34.9103996,1.47574228 34.8457224,1.47574228 L31.4301073,1.47574228 C31.36543,1.47574228 31.3129575,1.52867517 31.3129575,1.59401074 L31.3129575,21.4280443 C31.3129575,21.4934537 31.36543,21.5463866 31.4301073,21.5463866 L34.8457224,21.5463866 C34.9103996,21.5463866 34.9628722,21.4934537 34.9628722,21.4280443 L34.9628722,13.5347691 C34.9487674,12.0124872 35.8186578,10.8155544 37.4875494,10.8165141 C39.2438466,10.8174738 39.984821,12.0654201 39.984821,13.5901383 L39.984821,21.4280443 C39.984821,21.4934537 40.0372936,21.5463866 40.1018978,21.5463866 L43.517586,21.5463866 C43.5822632,21.5463866 43.6347358,21.4934537 43.6347358,21.4280443 L43.6347358,12.9525812 C43.6347358,9.95866174 42.0430184,7.54685638 38.6127138,7.54685638" id="Fill-39"></path>
            <path d="M48.6055202,1.14314362 C47.3626944,1.13339866 46.3377979,2.16274765 46.3377979,3.44391544 C46.3377979,4.66373423 47.3531207,5.68946577 48.5880537,5.68946577 C49.9489063,5.68946577 50.9909039,4.49747919 50.819966,3.15518389 C50.6768722,2.03096913 49.7275421,1.15192886 48.6055202,1.14314362" id="Fill-41"></path>
            <path d="M50.3096956,7.90711745 L46.8940074,7.90711745 C46.8293302,7.90711745 46.7769307,7.96005034 46.7769307,8.02538591 L46.7769307,21.4280369 C46.7769307,21.4934463 46.8293302,21.5463792 46.8940074,21.5463792 L50.3096956,21.5463792 C50.3743728,21.5463792 50.4267723,21.4934463 50.4267723,21.4280369 L50.4267723,8.02538591 C50.4267723,7.96005034 50.3743728,7.90711745 50.3096956,7.90711745" id="Fill-43"></path>
            <path d="M60.4856006,18.6087148 C58.6468673,18.6087148 57.0805092,17.1662383 57.0805092,14.6990638 C57.0805092,12.204057 58.6468673,10.8173188 60.4856006,10.8173188 C62.3516663,10.8173188 63.8335421,12.204057 63.8335421,14.6990638 C63.8335421,17.1940705 62.3516663,18.6087148 60.4856006,18.6087148 M61.2539806,7.54684899 C59.2506676,7.54684899 57.7687187,8.43393624 57.1649185,9.40415101 L57.1649185,1.59400336 C57.1649185,1.52866779 57.112519,1.4757349 57.0478417,1.4757349 L53.687184,1.4757349 C53.6224337,1.4757349 53.5700342,1.52866779 53.5700342,1.59400336 L53.5700342,21.4280369 C53.5700342,21.4934463 53.6224337,21.5463792 53.687184,21.5463792 L56.9930305,21.5463792 C57.0577078,21.5463792 57.1101073,21.4934463 57.1101073,21.4280369 L57.1101073,19.8830906 C57.8235299,21.0473926 59.2506676,21.8791107 61.1168064,21.8791107 C64.9586335,21.8791107 67.4833838,18.8018423 67.4833838,14.6713792 C67.4833838,10.6239698 65.2056493,7.54684899 61.2539806,7.54684899" id="Fill-45"></path>
            <path d="M89.3404922,18.3891799 C89.1026115,18.4326631 88.7096517,18.4692805 88.3527942,18.4692805 C87.3100659,18.4692805 86.7610768,18.0811799 86.7610768,16.8890456 L86.7610768,11.1783477 L89.3608089,11.1783477 C89.4254861,11.1783477 89.4779587,11.1253409 89.4779587,11.0600792 L89.4779587,8.02540805 C89.4779587,7.96007248 89.4254861,7.9071396 89.3608089,7.9071396 L86.7610768,7.9071396 L86.7610768,3.95024027 C86.7610768,3.88497852 86.7086773,3.83197181 86.6440001,3.83197181 L83.2689453,3.83197181 C83.2043411,3.83197181 83.1519416,3.88483087 83.1518685,3.95016644 L83.1467528,7.9071396 L80.8134033,7.9071396 C80.7487991,7.9071396 80.6963265,7.96007248 80.6963265,8.02540805 L80.6963265,11.0600792 C80.6963265,11.1253409 80.7487991,11.1783477 80.8134033,11.1783477 L83.1387869,11.1783477 L83.1387869,17.5266027 C83.1387869,20.1602537 84.7853156,21.7405624 87.4198344,21.7405624 C88.4122096,21.7405624 89.0505774,21.573643 89.4007845,21.4389114 C89.4475567,21.420898 89.4779587,21.3760121 89.4779587,21.3254416 L89.4779587,18.5064886 C89.4779587,18.4328107 89.4121852,18.3760389 89.3404922,18.3891799" id="Fill-47"></path>
            <path d="M113.04848,18.6087148 C111.127603,18.6087148 109.700538,17.1385537 109.700538,14.6990638 C109.700538,12.2595738 111.18256,10.8450034 113.04848,10.8450034 C114.914619,10.8450034 116.411476,12.2317416 116.411476,14.6713792 C116.411476,17.1385537 114.914619,18.6087148 113.04848,18.6087148 M119.828699,1.4757349 L116.431281,1.4757349 C116.366604,1.4757349 116.314205,1.52866779 116.314205,1.59400336 L116.314205,9.26550671 C115.930015,8.54474832 114.832402,7.57453356 112.49971,7.57453356 C108.685216,7.57453356 106.023145,10.7070235 106.023145,14.6990638 C106.023145,18.8296745 108.767506,21.8791107 112.609479,21.8791107 C114.420587,21.8791107 115.792767,21.0473926 116.396568,19.9662919 L116.403657,21.4286275 C116.404022,21.4938154 116.456348,21.5463792 116.520806,21.5463792 L119.828699,21.5463792 C119.893376,21.5463792 119.945849,21.4934463 119.945849,21.4280369 L119.945849,19.0792047 L119.945849,1.59400336 C119.945849,1.52866779 119.893376,1.4757349 119.828699,1.4757349" id="Fill-49"></path>
            <path d="M94.6830866,13.1743899 C94.7653034,11.9269604 95.808251,10.4854436 97.7017955,10.4854436 C99.7873253,10.4854436 100.665474,11.8160007 100.720431,13.1743899 L94.6830866,13.1743899 Z M97.6468381,7.49137651 C94.189128,7.49137651 91.0056931,10.3189671 91.0056931,14.6714235 C91.0056931,19.2731886 94.2713448,21.9622087 97.9762169,21.9622087 C100.740967,21.9622087 102.68713,20.5973966 103.657362,18.7803295 C103.689737,18.7194973 103.662624,18.6433832 103.599993,18.6158463 L100.863671,17.4147792 C100.810833,17.3915242 100.750102,17.4113832 100.718823,17.4602557 C100.197021,18.2746987 99.3360464,18.8019604 98.0036225,18.8019604 C96.1923679,18.8019604 94.6830866,17.4990141 94.6007236,15.697155 L104.151028,15.697155 C104.21227,15.697155 104.263062,15.650202 104.267666,15.5885577 C104.282648,15.3916651 104.315535,14.9678329 104.315535,14.5605376 C104.315535,10.1803966 101.81819,7.49137651 97.6468381,7.49137651 L97.6468381,7.49137651 Z" id="Fill-51"></path>
            <path d="M75.8386651,13.2463403 L73.9177151,12.830555 C73.1767406,12.6918369 72.6827821,12.3150315 72.6827821,11.6497161 C72.6827821,10.8735148 73.4511621,10.2913268 74.4117467,10.2913268 C75.728385,10.2913268 76.3387626,11.0439779 76.5557419,11.7653268 C76.5751816,11.8301456 76.6465823,11.8631456 76.7090671,11.8387094 L79.4281414,10.7745148 C79.4863874,10.7517027 79.5177394,10.6868101 79.4974958,10.6270852 C79.0151572,9.20550134 77.5868503,7.49134698 74.384195,7.49134698 C71.4752547,7.49134698 69.3347674,9.51505168 69.3347674,11.9546154 C69.3347674,13.8674342 70.5148162,15.5007497 73.1217833,16.0828638 L74.9056322,16.4987966 C75.9484337,16.7206423 76.3601024,17.1663268 76.3601024,17.7761993 C76.3601024,18.4970315 75.7838539,19.1346624 74.5763265,19.1346624 C73.0468015,19.1346624 72.2522583,18.2130248 72.1193229,17.1818302 C72.11048,17.1128034 72.0459489,17.0688772 71.9787869,17.0837899 L69.0824166,17.7254074 C69.0232205,17.7385483 68.9826603,17.794951 68.9910646,17.8555617 C69.2073862,19.4199242 70.6340853,21.962253 74.6037321,21.962253 C78.1438052,21.962253 79.8452912,19.6890919 79.8452912,17.4713 C79.8452912,15.4752799 78.5005896,13.8007698 75.8386651,13.2463403" id="Fill-53"></path>
            <path d="M29.1615299,17.3245497 L26.1727845,16.3180866 C26.1092035,16.2966772 26.0424069,16.3319658 26.0214325,16.396194 C25.6854763,17.4227376 24.7537589,18.5802477 22.9562437,18.5802477 C21.0901048,18.5802477 19.4985336,17.1941 19.4985336,14.7267779 C19.4985336,12.2596772 21.0626992,10.9012141 22.928765,10.9012141 C24.4826261,10.9012141 25.3281804,11.7583282 25.7452571,12.7195362 C25.7699587,12.7764557 25.8327358,12.8054691 25.8909087,12.7852409 L28.9530281,11.7179456 C29.0144897,11.6965362 29.047888,11.628543 29.0260366,11.566751 C28.280385,9.45408658 26.2427967,7.49136174 22.846402,7.49136174 C18.922212,7.49136174 15.8484727,10.5131134 15.8484727,14.7267779 C15.8484727,18.9128315 18.9770232,21.962194 22.9562437,21.962194 C26.493832,21.962194 28.596536,19.7074154 29.2379002,17.4693953 C29.2553667,17.4085631 29.2210184,17.3445564 29.1615299,17.3245497" id="Fill-55"></path>
        </g>
    </g>
</svg>